<?xml version="1.0" standalone="no"?>
<svg xmlns="http://www.w3.org/2000/svg" xmlns:xlink="http://www.w3.org/1999/xlink" width="1064pt" height="206pt" viewBox="0.00 0.00 1063.79 206.00">
<g id="graph0" class="graph" transform="translate(4,202) scale(1)" data-name="">
<polygon fill="white" stroke="transparent" points="-4,4 -4,-202 1059.79,-202 1059.79,4 -4,4" style=""/>
<g id="node1" class="node" pointer-events="visible" data-name="">

</g>
<!-- q1 -->
<g id="node3" class="node" pointer-events="visible" data-name="q1">

<ellipse fill="none" stroke="black" cx="118" cy="-95" rx="27" ry="18" style=""/>
<text text-anchor="middle" x="118" y="-90.8" font-family="Times,serif" font-size="14.00" style="">q1</text>
</g>
<!-- &#45;&gt;q1 -->
<g id="edge1" class="edge" data-name="-&gt;q1">

<path fill="none" stroke="black" d="M54.22,-95C62.55,-95 71.91,-95 80.82,-95" style=""/>
<polygon fill="black" stroke="black" points="80.97,-98.5 90.97,-95 80.97,-91.5 80.97,-98.5" style=""/>
</g>
<!-- q20 -->
<g id="node2" class="node" pointer-events="visible" data-name="q20">

<ellipse fill="none" stroke="black" cx="1026.27" cy="-106" rx="25.54" ry="25.54" style=""/>
<ellipse fill="none" stroke="black" cx="1026.27" cy="-106" rx="29.54" ry="29.54" style=""/>
<text text-anchor="middle" x="1026.27" y="-101.8" font-family="Times,serif" font-size="14.00" style="">q20</text>
</g>
<!-- q20&#45;&gt;q20 -->
<g id="edge25" class="edge" data-name="q20-&gt;q20">

<path fill="none" stroke="black" d="M1015.81,-133.82C1015.35,-144.58 1018.83,-153.52 1026.27,-153.52 1031.15,-153.52 1034.33,-149.67 1035.81,-143.98" style=""/>
<polygon fill="black" stroke="black" points="1039.31,-144.1 1036.73,-133.82 1032.34,-143.47 1039.31,-144.1" style=""/>
<text text-anchor="middle" x="1026.27" y="-157.72" font-family="Times,serif" font-size="14.00" style="">a, b</text>
</g>
<!-- q2 -->
<g id="node4" class="node" pointer-events="visible" data-name="q2">

<ellipse fill="none" stroke="black" cx="228.21" cy="-95" rx="27" ry="18" style=""/>
<text text-anchor="middle" x="228.21" y="-90.8" font-family="Times,serif" font-size="14.00" style="">q2</text>
</g>
<!-- q1&#45;&gt;q2 -->
<g id="edge2" class="edge" data-name="q1-&gt;q2">

<path fill="none" stroke="black" d="M145.2,-95C158.79,-95 175.61,-95 190.48,-95" style=""/>
<polygon fill="black" stroke="black" points="190.89,-98.5 200.89,-95 190.88,-91.5 190.89,-98.5" style=""/>
<text text-anchor="middle" x="173.11" y="-99.2" font-family="Times,serif" font-size="14.00" style="">a, b</text>
</g>
<!-- q2&#45;&gt;q2 -->
<g id="edge3" class="edge" data-name="q2-&gt;q2">

<path fill="none" stroke="black" d="M219.35,-112.04C217.55,-121.86 220.5,-131 228.21,-131 233.04,-131 236,-127.43 237.1,-122.35" style=""/>
<polygon fill="black" stroke="black" points="240.6,-122.03 237.07,-112.04 233.6,-122.05 240.6,-122.03" style=""/>
<text text-anchor="middle" x="228.21" y="-135.2" font-family="Times,serif" font-size="14.00" style="">a, b</text>
</g>
<!-- q3 -->
<g id="node5" class="node" pointer-events="visible" data-name="q3">

<ellipse fill="none" stroke="black" cx="329.88" cy="-180" rx="27" ry="18" style=""/>
<text text-anchor="middle" x="329.88" y="-175.8" font-family="Times,serif" font-size="14.00" style="">q3</text>
</g>
<!-- q2&#45;&gt;q3 -->
<g id="edge4" class="edge" data-name="q2-&gt;q3">

<path fill="none" stroke="black" d="M245.67,-109.04C261.68,-122.69 286.21,-143.61 304.49,-159.2" style=""/>
<polygon fill="black" stroke="black" points="302.51,-162.12 312.39,-165.94 307.06,-156.79 302.51,-162.12" style=""/>
<text text-anchor="middle" x="279.04" y="-144.2" font-family="Times,serif" font-size="14.00" style="">λ</text>
</g>
<!-- q6 -->
<g id="node9" class="node" pointer-events="visible" data-name="q6">

<ellipse fill="none" stroke="black" cx="329.88" cy="-126" rx="27" ry="18" style=""/>
<text text-anchor="middle" x="329.88" y="-121.8" font-family="Times,serif" font-size="14.00" style="">q6</text>
</g>
<!-- q2&#45;&gt;q6 -->
<g id="edge8" class="edge" data-name="q2-&gt;q6">

<path fill="none" stroke="black" d="M253.09,-102.43C265.78,-106.37 281.6,-111.29 295.49,-115.62" style=""/>
<polygon fill="black" stroke="black" points="294.61,-119.01 305.2,-118.64 296.69,-112.32 294.61,-119.01" style=""/>
<text text-anchor="middle" x="279.04" y="-115.2" font-family="Times,serif" font-size="14.00" style="">λ</text>
</g>
<!-- q9 -->
<g id="node12" class="node" pointer-events="visible" data-name="q9">

<ellipse fill="none" stroke="black" cx="329.88" cy="-72" rx="27" ry="18" style=""/>
<text text-anchor="middle" x="329.88" y="-67.8" font-family="Times,serif" font-size="14.00" style="">q9</text>
</g>
<!-- q2&#45;&gt;q9 -->
<g id="edge12" class="edge" data-name="q2-&gt;q9">

<path fill="none" stroke="black" d="M253.35,-88.23C259.79,-86.51 266.75,-84.72 273.21,-83.2 279.7,-81.68 286.64,-80.18 293.35,-78.8" style=""/>
<polygon fill="black" stroke="black" points="294.48,-82.14 303.59,-76.74 293.09,-75.28 294.48,-82.14" style=""/>
<text text-anchor="middle" x="279.04" y="-87.2" font-family="Times,serif" font-size="14.00" style="">λ</text>
</g>
<!-- q14 -->
<g id="node17" class="node" pointer-events="visible" data-name="q14">

<ellipse fill="none" stroke="black" cx="329.88" cy="-18" rx="27" ry="18" style=""/>
<text text-anchor="middle" x="329.88" y="-13.8" font-family="Times,serif" font-size="14.00" style="">q14</text>
</g>
<!-- q2&#45;&gt;q14 -->
<g id="edge18" class="edge" data-name="q2-&gt;q14">

<path fill="none" stroke="black" d="M245.79,-81.22C253.97,-74.49 264.04,-66.33 273.21,-59.2 282.74,-51.81 293.34,-43.88 302.72,-36.98" style=""/>
<polygon fill="black" stroke="black" points="304.92,-39.7 310.92,-30.97 300.79,-34.06 304.92,-39.7" style=""/>
<text text-anchor="middle" x="279.04" y="-63.2" font-family="Times,serif" font-size="14.00" style="">λ</text>
</g>
<!-- q4 -->
<g id="node6" class="node" pointer-events="visible" data-name="q4">

<ellipse fill="none" stroke="black" cx="426.88" cy="-180" rx="27" ry="18" style=""/>
<text text-anchor="middle" x="426.88" y="-175.8" font-family="Times,serif" font-size="14.00" style="">q4</text>
</g>
<!-- q3&#45;&gt;q4 -->
<g id="edge5" class="edge" data-name="q3-&gt;q4">

<path fill="none" stroke="black" d="M357.09,-180C367.16,-180 378.84,-180 389.69,-180" style=""/>
<polygon fill="black" stroke="black" points="389.75,-183.5 399.75,-180 389.75,-176.5 389.75,-183.5" style=""/>
<text text-anchor="middle" x="378.38" y="-184.2" font-family="Times,serif" font-size="14.00" style="">a</text>
</g>
<!-- q5 -->
<g id="node7" class="node" pointer-events="visible" data-name="q5">

<ellipse fill="none" stroke="black" cx="739.88" cy="-175" rx="27" ry="18" style=""/>
<text text-anchor="middle" x="739.88" y="-170.8" font-family="Times,serif" font-size="14.00" style="">q5</text>
</g>
<!-- q4&#45;&gt;q5 -->
<g id="edge6" class="edge" data-name="q4-&gt;q5">

<path fill="none" stroke="black" d="M454.12,-179.58C509.63,-178.69 639.03,-176.61 702.48,-175.59" style=""/>
<polygon fill="black" stroke="black" points="702.87,-179.08 712.81,-175.42 702.75,-172.08 702.87,-179.08" style=""/>
<text text-anchor="middle" x="523.88" y="-182.2" font-family="Times,serif" font-size="14.00" style="">a</text>
</g>
<!-- q19 -->
<g id="node8" class="node" pointer-events="visible" data-name="q19">

<ellipse fill="none" stroke="black" cx="913.54" cy="-106" rx="27" ry="18" style=""/>
<text text-anchor="middle" x="913.54" y="-101.8" font-family="Times,serif" font-size="14.00" style="">q19</text>
</g>
<!-- q5&#45;&gt;q19 -->
<g id="edge7" class="edge" data-name="q5-&gt;q19">

<path fill="none" stroke="black" d="M766.29,-170.35C792.76,-164.89 834.96,-154.44 868.54,-138 875.15,-134.76 881.81,-130.53 887.88,-126.21" style=""/>
<polygon fill="black" stroke="black" points="890.37,-128.72 896.28,-119.92 886.18,-123.11 890.37,-128.72" style=""/>
<text text-anchor="middle" x="811.88" y="-169.2" font-family="Times,serif" font-size="14.00" style="">λ</text>
</g>
<!-- q19&#45;&gt;q20 -->
<g id="edge24" class="edge" data-name="q19-&gt;q20">

<path fill="none" stroke="black" d="M940.78,-106C954.39,-106 971.29,-106 986.39,-106" style=""/>
<polygon fill="black" stroke="black" points="986.5,-109.5 996.5,-106 986.5,-102.5 986.5,-109.5" style=""/>
<text text-anchor="middle" x="968.64" y="-110.2" font-family="Times,serif" font-size="14.00" style="">a, b</text>
</g>
<!-- q7 -->
<g id="node10" class="node" pointer-events="visible" data-name="q7">

<ellipse fill="none" stroke="black" cx="426.88" cy="-126" rx="27" ry="18" style=""/>
<text text-anchor="middle" x="426.88" y="-121.8" font-family="Times,serif" font-size="14.00" style="">q7</text>
</g>
<!-- q6&#45;&gt;q7 -->
<g id="edge9" class="edge" data-name="q6-&gt;q7">

<path fill="none" stroke="black" d="M357.09,-126C367.16,-126 378.84,-126 389.69,-126" style=""/>
<polygon fill="black" stroke="black" points="389.75,-129.5 399.75,-126 389.75,-122.5 389.75,-129.5" style=""/>
<text text-anchor="middle" x="378.38" y="-130.2" font-family="Times,serif" font-size="14.00" style="">b</text>
</g>
<!-- q8 -->
<g id="node11" class="node" pointer-events="visible" data-name="q8">

<ellipse fill="none" stroke="black" cx="595.88" cy="-124" rx="27" ry="18" style=""/>
<text text-anchor="middle" x="595.88" y="-119.8" font-family="Times,serif" font-size="14.00" style="">q8</text>
</g>
<!-- q7&#45;&gt;q8 -->
<g id="edge10" class="edge" data-name="q7-&gt;q8">

<path fill="none" stroke="black" d="M453.97,-125.69C482.07,-125.35 527,-124.81 558.55,-124.44" style=""/>
<polygon fill="black" stroke="black" points="558.73,-127.93 568.69,-124.31 558.65,-120.93 558.73,-127.93" style=""/>
<text text-anchor="middle" x="475.38" y="-129.2" font-family="Times,serif" font-size="14.00" style="">b</text>
</g>
<!-- q8&#45;&gt;q19 -->
<g id="edge11" class="edge" data-name="q8-&gt;q19">

<path fill="none" stroke="black" d="M623.12,-122.99C671.62,-121.05 778.56,-116.41 868.54,-110 871.08,-109.82 873.71,-109.62 876.35,-109.4" style=""/>
<polygon fill="black" stroke="black" points="876.83,-112.88 886.49,-108.54 876.23,-105.9 876.83,-112.88" style=""/>
<text text-anchor="middle" x="739.88" y="-122.2" font-family="Times,serif" font-size="14.00" style="">λ</text>
</g>
<!-- q10 -->
<g id="node13" class="node" pointer-events="visible" data-name="q10">

<ellipse fill="none" stroke="black" cx="426.88" cy="-72" rx="27" ry="18" style=""/>
<text text-anchor="middle" x="426.88" y="-67.8" font-family="Times,serif" font-size="14.00" style="">q10</text>
</g>
<!-- q9&#45;&gt;q10 -->
<g id="edge13" class="edge" data-name="q9-&gt;q10">

<path fill="none" stroke="black" d="M357.09,-72C367.16,-72 378.84,-72 389.69,-72" style=""/>
<polygon fill="black" stroke="black" points="389.75,-75.5 399.75,-72 389.75,-68.5 389.75,-75.5" style=""/>
<text text-anchor="middle" x="378.38" y="-76.2" font-family="Times,serif" font-size="14.00" style="">a</text>
</g>
<!-- q11 -->
<g id="node14" class="node" pointer-events="visible" data-name="q11">

<ellipse fill="none" stroke="black" cx="523.88" cy="-72" rx="27" ry="18" style=""/>
<text text-anchor="middle" x="523.88" y="-67.8" font-family="Times,serif" font-size="14.00" style="">q11</text>
</g>
<!-- q10&#45;&gt;q11 -->
<g id="edge14" class="edge" data-name="q10-&gt;q11">

<path fill="none" stroke="black" d="M454.09,-72C464.16,-72 475.84,-72 486.69,-72" style=""/>
<polygon fill="black" stroke="black" points="486.75,-75.5 496.75,-72 486.75,-68.5 486.75,-75.5" style=""/>
<text text-anchor="middle" x="475.38" y="-76.2" font-family="Times,serif" font-size="14.00" style="">b</text>
</g>
<!-- q12 -->
<g id="node15" class="node" pointer-events="visible" data-name="q12">

<ellipse fill="none" stroke="black" cx="667.88" cy="-72" rx="27" ry="18" style=""/>
<text text-anchor="middle" x="667.88" y="-67.8" font-family="Times,serif" font-size="14.00" style="">q12</text>
</g>
<!-- q11&#45;&gt;q12 -->
<g id="edge15" class="edge" data-name="q11-&gt;q12">

<path fill="none" stroke="black" d="M550.92,-72C573.2,-72 605.51,-72 630.37,-72" style=""/>
<polygon fill="black" stroke="black" points="630.51,-75.5 640.51,-72 630.51,-68.5 630.51,-75.5" style=""/>
<text text-anchor="middle" x="595.88" y="-76.2" font-family="Times,serif" font-size="14.00" style="">a</text>
</g>
<!-- q13 -->
<g id="node16" class="node" pointer-events="visible" data-name="q13">

<ellipse fill="none" stroke="black" cx="811.88" cy="-74" rx="27" ry="18" style=""/>
<text text-anchor="middle" x="811.88" y="-69.8" font-family="Times,serif" font-size="14.00" style="">q13</text>
</g>
<!-- q12&#45;&gt;q13 -->
<g id="edge16" class="edge" data-name="q12-&gt;q13">

<path fill="none" stroke="black" d="M694.92,-72.37C717.2,-72.68 749.51,-73.14 774.37,-73.49" style=""/>
<polygon fill="black" stroke="black" points="774.47,-76.99 784.51,-73.63 774.56,-69.99 774.47,-76.99" style=""/>
<text text-anchor="middle" x="739.88" y="-77.2" font-family="Times,serif" font-size="14.00" style="">b</text>
</g>
<!-- q13&#45;&gt;q19 -->
<g id="edge17" class="edge" data-name="q13-&gt;q19">

<path fill="none" stroke="black" d="M836.49,-81.58C849.18,-85.66 865.05,-90.75 879,-95.23" style=""/>
<polygon fill="black" stroke="black" points="878.15,-98.64 888.74,-98.36 880.29,-91.97 878.15,-98.64" style=""/>
<text text-anchor="middle" x="862.71" y="-94.2" font-family="Times,serif" font-size="14.00" style="">λ</text>
</g>
<!-- q15 -->
<g id="node18" class="node" pointer-events="visible" data-name="q15">

<ellipse fill="none" stroke="black" cx="426.88" cy="-18" rx="27" ry="18" style=""/>
<text text-anchor="middle" x="426.88" y="-13.8" font-family="Times,serif" font-size="14.00" style="">q15</text>
</g>
<!-- q14&#45;&gt;q15 -->
<g id="edge19" class="edge" data-name="q14-&gt;q15">

<path fill="none" stroke="black" d="M357.09,-18C367.16,-18 378.84,-18 389.69,-18" style=""/>
<polygon fill="black" stroke="black" points="389.75,-21.5 399.75,-18 389.75,-14.5 389.75,-21.5" style=""/>
<text text-anchor="middle" x="378.38" y="-22.2" font-family="Times,serif" font-size="14.00" style="">b</text>
</g>
<!-- q16 -->
<g id="node19" class="node" pointer-events="visible" data-name="q16">

<ellipse fill="none" stroke="black" cx="523.88" cy="-18" rx="27" ry="18" style=""/>
<text text-anchor="middle" x="523.88" y="-13.8" font-family="Times,serif" font-size="14.00" style="">q16</text>
</g>
<!-- q15&#45;&gt;q16 -->
<g id="edge20" class="edge" data-name="q15-&gt;q16">

<path fill="none" stroke="black" d="M454.09,-18C464.16,-18 475.84,-18 486.69,-18" style=""/>
<polygon fill="black" stroke="black" points="486.75,-21.5 496.75,-18 486.75,-14.5 486.75,-21.5" style=""/>
<text text-anchor="middle" x="475.38" y="-22.2" font-family="Times,serif" font-size="14.00" style="">a</text>
</g>
<!-- q17 -->
<g id="node20" class="node" pointer-events="visible" data-name="q17">

<ellipse fill="none" stroke="black" cx="667.88" cy="-18" rx="27" ry="18" style=""/>
<text text-anchor="middle" x="667.88" y="-13.8" font-family="Times,serif" font-size="14.00" style="">q17</text>
</g>
<!-- q16&#45;&gt;q17 -->
<g id="edge21" class="edge" data-name="q16-&gt;q17">

<path fill="none" stroke="black" d="M550.92,-18C573.2,-18 605.51,-18 630.37,-18" style=""/>
<polygon fill="black" stroke="black" points="630.51,-21.5 640.51,-18 630.51,-14.5 630.51,-21.5" style=""/>
<text text-anchor="middle" x="595.88" y="-22.2" font-family="Times,serif" font-size="14.00" style="">b</text>
</g>
<!-- q18 -->
<g id="node21" class="node" pointer-events="visible" data-name="q18">

<ellipse fill="none" stroke="black" cx="811.88" cy="-20" rx="27" ry="18" style=""/>
<text text-anchor="middle" x="811.88" y="-15.8" font-family="Times,serif" font-size="14.00" style="">q18</text>
</g>
<!-- q17&#45;&gt;q18 -->
<g id="edge22" class="edge" data-name="q17-&gt;q18">

<path fill="none" stroke="black" d="M694.92,-18.37C717.2,-18.68 749.51,-19.14 774.37,-19.49" style=""/>
<polygon fill="black" stroke="black" points="774.47,-22.99 784.51,-19.63 774.56,-15.99 774.47,-22.99" style=""/>
<text text-anchor="middle" x="739.88" y="-24.2" font-family="Times,serif" font-size="14.00" style="">a</text>
</g>
<!-- q18&#45;&gt;q19 -->
<g id="edge23" class="edge" data-name="q18-&gt;q19">

<path fill="none" stroke="black" d="M829.33,-34.2C845.44,-48.1 870.16,-69.43 888.48,-85.24" style=""/>
<polygon fill="black" stroke="black" points="886.53,-88.18 896.39,-92.06 891.1,-82.88 886.53,-88.18" style=""/>
<text text-anchor="middle" x="862.71" y="-69.2" font-family="Times,serif" font-size="14.00" style="">λ</text>
</g>
</g>
</svg>