<?xml version="1.0" standalone="no"?>
<svg xmlns="http://www.w3.org/2000/svg" xmlns:xlink="http://www.w3.org/1999/xlink" width="644pt" height="366pt" viewBox="0.00 0.00 644.04 365.93">
<g id="graph0" class="graph" transform="translate(4,361.92999267578125) scale(1)" data-name="">
<polygon fill="white" stroke="transparent" points="-4,4 -4,-361.93 640.04,-361.93 640.04,4 -4,4"/>
<g id="node1" class="node" pointer-events="visible" data-name="">

</g>
<!-- q1 -->
<g id="node2" class="node" pointer-events="visible" data-name="q1">

<ellipse fill="none" stroke="black" cx="115.69" cy="-46.48" rx="20.86" ry="20.86"/>
<ellipse fill="none" stroke="black" cx="115.69" cy="-46.48" rx="24.89" ry="24.89"/>
<text text-anchor="middle" x="115.69" y="-42.28" font-family="Times,serif" font-size="14.00">q1</text>
</g>
<!-- &#45;&gt;q1 -->
<g id="edge1" class="edge" data-name="-&gt;q1">

<path fill="none" stroke="black" d="M54.01,-46.48C62.4,-46.48 71.82,-46.48 80.7,-46.48"/>
<polygon fill="black" stroke="black" points="80.77,-49.98 90.77,-46.48 80.77,-42.98 80.77,-49.98"/>
</g>
<!-- {q1, q2} -->
<g id="node3" class="node" pointer-events="visible" data-name="{q1, q2}">

<ellipse fill="none" stroke="black" cx="231.83" cy="-227.48" rx="44.4" ry="44.4"/>
<ellipse fill="none" stroke="black" cx="231.83" cy="-227.48" rx="48.4" ry="48.4"/>
<text text-anchor="middle" x="231.83" y="-223.28" font-family="Times,serif" font-size="14.00">{q1, q2}</text>
</g>
<!-- q1&#45;&gt;{q1, q2} -->
<g id="edge2" class="edge" data-name="q1-&gt;{q1, q2}">

<path fill="none" stroke="black" d="M129.79,-67.25C146.75,-94.15 176.88,-141.93 199.84,-178.33"/>
<polygon fill="black" stroke="black" points="196.92,-180.26 205.21,-186.85 202.84,-176.53 196.92,-180.26"/>
<text text-anchor="middle" x="161.89" y="-124.68" font-family="Times,serif" font-size="14.00">a</text>
</g>
<!-- q2 -->
<g id="node6" class="node" pointer-events="visible" data-name="q2">

<ellipse fill="none" stroke="black" cx="325.28" cy="-46.48" rx="27" ry="18"/>
<text text-anchor="middle" x="325.28" y="-42.28" font-family="Times,serif" font-size="14.00">q2</text>
</g>
<!-- q1&#45;&gt;q2 -->
<g id="edge3" class="edge" data-name="q1-&gt;q2">

<path fill="none" stroke="black" d="M140.51,-46.48C176.64,-46.48 245.57,-46.48 287.98,-46.48"/>
<polygon fill="black" stroke="black" points="288.15,-49.98 298.15,-46.48 288.15,-42.98 288.15,-49.98"/>
<text text-anchor="middle" x="161.89" y="-50.68" font-family="Times,serif" font-size="14.00">b</text>
</g>
<!-- {q1, q2, q3} -->
<g id="node4" class="node" pointer-events="visible" data-name="{q1, q2, q3}">

<ellipse fill="none" stroke="black" cx="433.22" cy="-144.48" rx="58.87" ry="58.87"/>
<ellipse fill="none" stroke="black" cx="433.22" cy="-144.48" rx="62.87" ry="62.87"/>
<text text-anchor="middle" x="433.22" y="-140.28" font-family="Times,serif" font-size="14.00">{q1, q2, q3}</text>
</g>
<!-- {q1, q2}&#45;&gt;{q1, q2, q3} -->
<g id="edge4" class="edge" data-name="{q1, q2}-&gt;{q1, q2, q3}">

<path fill="none" stroke="black" d="M277.08,-209.06C303.07,-198.25 336.42,-184.36 365.54,-172.24"/>
<polygon fill="black" stroke="black" points="366.94,-175.45 374.83,-168.37 364.25,-168.99 366.94,-175.45"/>
<text text-anchor="middle" x="325.28" y="-201.68" font-family="Times,serif" font-size="14.00">a</text>
</g>
<!-- {q2, q3} -->
<g id="node7" class="node" pointer-events="visible" data-name="{q2, q3}">

<ellipse fill="none" stroke="black" cx="433.22" cy="-277.48" rx="44.4" ry="18"/>
<text text-anchor="middle" x="433.22" y="-273.28" font-family="Times,serif" font-size="14.00">{q2, q3}</text>
</g>
<!-- {q1, q2}&#45;&gt;{q2, q3} -->
<g id="edge5" class="edge" data-name="{q1, q2}-&gt;{q2, q3}">

<path fill="none" stroke="black" d="M279.08,-239.08C310.84,-247.05 352.88,-257.59 384.88,-265.61"/>
<polygon fill="black" stroke="black" points="384.34,-269.09 394.89,-268.12 386.04,-262.3 384.34,-269.09"/>
<text text-anchor="middle" x="325.28" y="-260.68" font-family="Times,serif" font-size="14.00">b</text>
</g>
<!-- {q1, q2, q3}&#45;&gt;{q1, q2, q3} -->
<g id="edge7" class="edge" data-name="{q1, q2, q3}-&gt;{q1, q2, q3}">

<path fill="none" stroke="black" d="M418.27,-205.89C420.11,-217.35 425.09,-225.42 433.22,-225.42 438.67,-225.42 442.71,-221.77 445.33,-215.91"/>
<polygon fill="black" stroke="black" points="448.81,-216.47 448.16,-205.89 442.07,-214.56 448.81,-216.47"/>
<text text-anchor="middle" x="433.22" y="-229.62" font-family="Times,serif" font-size="14.00">a, b</text>
</g>
<!-- {q1, q3} -->
<g id="node5" class="node" pointer-events="visible" data-name="{q1, q3}">

<ellipse fill="none" stroke="black" cx="587.6" cy="-309.48" rx="44.4" ry="44.4"/>
<ellipse fill="none" stroke="black" cx="587.6" cy="-309.48" rx="48.4" ry="48.4"/>
<text text-anchor="middle" x="587.6" y="-305.28" font-family="Times,serif" font-size="14.00">{q1, q3}</text>
</g>
<!-- {q1, q3}&#45;&gt;{q1, q2} -->
<g id="edge11" class="edge" data-name="{q1, q3}-&gt;{q1, q2}">

<path fill="none" stroke="black" d="M539.37,-314.88C479.38,-319.46 374.51,-319.68 298.28,-277.48 291.33,-273.64 284.32,-269.11 277.59,-264.37"/>
<polygon fill="black" stroke="black" points="279.4,-261.35 269.26,-258.29 275.28,-267.01 279.4,-261.35"/>
<text text-anchor="middle" x="433.22" y="-320.68" font-family="Times,serif" font-size="14.00">a, b</text>
</g>
<!-- q3 -->
<g id="node8" class="node" pointer-events="visible" data-name="q3">

<ellipse fill="none" stroke="black" cx="587.6" cy="-46.48" rx="27" ry="18"/>
<text text-anchor="middle" x="587.6" y="-42.28" font-family="Times,serif" font-size="14.00">q3</text>
</g>
<!-- q2&#45;&gt;q3 -->
<g id="edge6" class="edge" data-name="q2-&gt;q3">

<path fill="none" stroke="black" d="M352.67,-46.48C399.47,-46.48 497.06,-46.48 550.2,-46.48"/>
<polygon fill="black" stroke="black" points="550.52,-49.98 560.52,-46.48 550.52,-42.98 550.52,-49.98"/>
<text text-anchor="middle" x="433.22" y="-50.68" font-family="Times,serif" font-size="14.00">a, b</text>
</g>
<!-- {q2, q3}&#45;&gt;{q1, q3} -->
<g id="edge9" class="edge" data-name="{q2, q3}-&gt;{q1, q3}">

<path fill="none" stroke="black" d="M473.06,-285.64C490.33,-289.27 510.99,-293.61 529.93,-297.58"/>
<polygon fill="black" stroke="black" points="529.44,-301.06 539.95,-299.69 530.88,-294.21 529.44,-301.06"/>
<text text-anchor="middle" x="517.65" y="-298.68" font-family="Times,serif" font-size="14.00">b</text>
</g>
<!-- {q2, q3}&#45;&gt;q3 -->
<g id="edge8" class="edge" data-name="{q2, q3}-&gt;q3">

<path fill="none" stroke="black" d="M470.09,-267.12C479.44,-263.1 488.91,-257.68 496.15,-250.48 546.54,-200.4 571.15,-117.39 581.06,-74.33"/>
<polygon fill="black" stroke="black" points="584.48,-75.05 583.21,-64.53 577.64,-73.54 584.48,-75.05"/>
<text text-anchor="middle" x="517.65" y="-231.68" font-family="Times,serif" font-size="14.00">a</text>
</g>
<!-- q3&#45;&gt;q1 -->
<g id="edge10" class="edge" data-name="q3-&gt;q1">

<path fill="none" stroke="black" d="M563.12,-38.58C514.07,-23.03 397.07,9.06 298.28,-2.68 245.23,-8.99 185.26,-25.32 149.25,-36.16"/>
<polygon fill="black" stroke="black" points="147.85,-32.92 139.31,-39.19 149.9,-39.62 147.85,-32.92"/>
<text text-anchor="middle" x="325.28" y="-7.68" font-family="Times,serif" font-size="14.00">b</text>
</g>
</g>
</svg>