<?xml version="1.0" standalone="no"?>
<svg xmlns="http://www.w3.org/2000/svg" xmlns:xlink="http://www.w3.org/1999/xlink" width="369pt" height="92pt" viewBox="0.00 0.00 368.82 92.19">
<g id="graph0" class="graph" transform="translate(4,88.19000244140625) scale(1)" data-name="">
<polygon fill="white" stroke="transparent" points="-4,4 -4,-88.19 364.82,-88.19 364.82,4 -4,4" style=""/>
<g id="node1" class="node" pointer-events="visible" data-name="">

</g>
<!-- q1 -->
<g id="node2" class="node" pointer-events="visible" data-name="q1">

<ellipse fill="none" stroke="black" cx="115.69" cy="-24.69" rx="20.86" ry="20.86" style=""/>
<ellipse fill="none" stroke="black" cx="115.69" cy="-24.69" rx="24.89" ry="24.89" style=""/>
<text text-anchor="middle" x="115.69" y="-20.49" font-family="Times,serif" font-size="14.00" style="">q1</text>
</g>
<!-- &#45;&gt;q1 -->
<g id="edge1" class="edge" data-name="-&gt;q1">

<path fill="none" stroke="black" d="M54.01,-24.69C62.4,-24.69 71.82,-24.69 80.7,-24.69" style=""/>
<polygon fill="black" stroke="black" points="80.77,-28.19 90.77,-24.69 80.77,-21.19 80.77,-28.19" style=""/>
</g>
<!-- q1&#45;&gt;q1 -->
<g id="edge2" class="edge" data-name="q1-&gt;q1">

<path fill="none" stroke="black" d="M107.91,-48.4C107.28,-58.63 109.87,-67.39 115.69,-67.39 119.42,-67.39 121.83,-63.79 122.91,-58.52" style=""/>
<polygon fill="black" stroke="black" points="126.41,-58.58 123.47,-48.4 119.42,-58.19 126.41,-58.58" style=""/>
<text text-anchor="middle" x="115.69" y="-71.59" font-family="Times,serif" font-size="14.00" style="">a</text>
</g>
<!-- q2 -->
<g id="node3" class="node" pointer-events="visible" data-name="q2">

<ellipse fill="none" stroke="black" cx="223.6" cy="-61.69" rx="27" ry="18" style=""/>
<text text-anchor="middle" x="223.6" y="-57.49" font-family="Times,serif" font-size="14.00" style="">q2</text>
</g>
<!-- q1&#45;&gt;q2 -->
<g id="edge3" class="edge" data-name="q1-&gt;q2">

<path fill="none" stroke="black" d="M139.15,-32.54C153.84,-37.67 173.26,-44.46 189.68,-50.19" style=""/>
<polygon fill="black" stroke="black" points="188.85,-53.61 199.44,-53.6 191.16,-47 188.85,-53.61" style=""/>
<text text-anchor="middle" x="168.49" y="-48.89" font-family="Times,serif" font-size="14.00" style="">a, b</text>
</g>
<!-- q3 -->
<g id="node4" class="node" pointer-events="visible" data-name="q3">

<ellipse fill="none" stroke="black" cx="333.82" cy="-24.69" rx="27" ry="18" style=""/>
<text text-anchor="middle" x="333.82" y="-20.49" font-family="Times,serif" font-size="14.00" style="">q3</text>
</g>
<!-- q2&#45;&gt;q3 -->
<g id="edge4" class="edge" data-name="q2-&gt;q3">

<path fill="none" stroke="black" d="M248.08,-53.67C263.11,-48.53 282.85,-41.78 299.49,-36.09" style=""/>
<polygon fill="black" stroke="black" points="301.05,-39.25 309.38,-32.71 298.79,-32.63 301.05,-39.25" style=""/>
<text text-anchor="middle" x="278.71" y="-49.89" font-family="Times,serif" font-size="14.00" style="">a, b</text>
</g>
<!-- q3&#45;&gt;q1 -->
<g id="edge5" class="edge" data-name="q3-&gt;q1">

<path fill="none" stroke="black" d="M306.93,-22C290.76,-20.46 269.49,-18.67 250.6,-17.89 226.62,-16.9 220.58,-16.88 196.6,-17.89 181.53,-18.53 164.89,-19.85 150.72,-21.16" style=""/>
<polygon fill="black" stroke="black" points="150.06,-17.7 140.44,-22.14 150.72,-24.67 150.06,-17.7" style=""/>
<text text-anchor="middle" x="223.6" y="-22.89" font-family="Times,serif" font-size="14.00" style="">b</text>
</g>
</g>
</svg>