<?xml version="1.0" standalone="no"?>
<svg xmlns="http://www.w3.org/2000/svg" xmlns:xlink="http://www.w3.org/1999/xlink" width="801pt" height="196pt" viewBox="0.00 0.00 801.21 195.8">
<g id="graph0" class="graph" transform="translate(4,191.8000030517578) scale(1)" data-name="">
<polygon fill="white" stroke="transparent" points="-4,4 -4,-191.8 797.21,-191.8 797.21,4 -4,4"/>
<g id="node1" class="node" pointer-events="visible" data-name="">

</g>
<!-- q1 -->
<g id="node5" class="node" pointer-events="visible" data-name="q1">

<ellipse fill="none" stroke="black" cx="118" cy="-34" rx="27" ry="18"/>
<text text-anchor="middle" x="118" y="-29.8" font-family="Times,serif" font-size="14.00">q1</text>
</g>
<!-- &#45;&gt;q1 -->
<g id="edge1" class="edge" data-name="-&gt;q1">

<path fill="none" stroke="black" d="M54.22,-34C62.55,-34 71.91,-34 80.82,-34"/>
<polygon fill="black" stroke="black" points="80.97,-37.5 90.97,-34 80.97,-30.5 80.97,-37.5"/>
</g>
<!-- q2 -->
<g id="node2" class="node" pointer-events="visible" data-name="q2">

<ellipse fill="none" stroke="black" cx="211.91" cy="-34" rx="20.86" ry="20.86"/>
<ellipse fill="none" stroke="black" cx="211.91" cy="-34" rx="24.89" ry="24.89"/>
<text text-anchor="middle" x="211.91" y="-29.8" font-family="Times,serif" font-size="14.00">q2</text>
</g>
<!-- q3 -->
<g id="node6" class="node" pointer-events="visible" data-name="q3">

<ellipse fill="none" stroke="black" cx="305.82" cy="-34" rx="27" ry="18"/>
<text text-anchor="middle" x="305.82" y="-29.8" font-family="Times,serif" font-size="14.00">q3</text>
</g>
<!-- q2&#45;&gt;q3 -->
<g id="edge3" class="edge" data-name="q2-&gt;q3">

<path fill="none" stroke="black" d="M237.06,-34C246.63,-34 257.85,-34 268.37,-34"/>
<polygon fill="black" stroke="black" points="268.57,-37.5 278.57,-34 268.57,-30.5 268.57,-37.5"/>
<text text-anchor="middle" x="257.71" y="-38.2" font-family="Times,serif" font-size="14.00">a</text>
</g>
<!-- q6 -->
<g id="node3" class="node" pointer-events="visible" data-name="q6">

<ellipse fill="none" stroke="black" cx="400.51" cy="-91" rx="20.86" ry="20.86"/>
<ellipse fill="none" stroke="black" cx="400.51" cy="-91" rx="24.89" ry="24.89"/>
<text text-anchor="middle" x="400.51" y="-86.8" font-family="Times,serif" font-size="14.00">q6</text>
</g>
<!-- {q3,q7} -->
<g id="node9" class="node" pointer-events="visible" data-name="{q3, q7}" data-comment="{q3,q7}">

<ellipse fill="none" stroke="black" cx="511.87" cy="-91" rx="44.4" ry="18"/>
<text text-anchor="middle" x="511.87" y="-86.8" font-family="Times,serif" font-size="14.00">{q3, q7}</text>
</g>
<!-- q6&#45;&gt;{q3,q7} -->
<g id="edge7" class="edge" data-name="q6-&gt;{q3, q7}" data-comment="q6-&gt;{q3,q7}">

<path fill="none" stroke="black" d="M425.24,-91C434.66,-91 445.92,-91 457.12,-91"/>
<polygon fill="black" stroke="black" points="457.35,-94.5 467.35,-91 457.35,-87.5 457.35,-94.5"/>
<text text-anchor="middle" x="446.31" y="-95.2" font-family="Times,serif" font-size="14.00">a</text>
</g>
<!-- {q6,q8} -->
<g id="node4" class="node" pointer-events="visible" data-name="{q6, q8}" data-comment="{q6,q8}">

<ellipse fill="none" stroke="black" cx="647.76" cy="-102" rx="44.4" ry="44.4"/>
<ellipse fill="none" stroke="black" cx="647.76" cy="-102" rx="48.4" ry="48.4"/>
<text text-anchor="middle" x="647.76" y="-97.8" font-family="Times,serif" font-size="14.00">{q6, q8}</text>
</g>
<!-- {q6,q8}&#45;&gt;{q3,q7} -->
<g id="edge12" class="edge" data-name="{q6, q8}-&gt;{q3, q7}" data-comment="{q6,q8}-&gt;{q3,q7}">

<path fill="none" stroke="black" d="M600.47,-91C594.07,-89.84 587.55,-88.85 581.31,-88.2 576.27,-87.67 571,-87.4 565.73,-87.31"/>
<polygon fill="black" stroke="black" points="565.63,-83.81 555.65,-87.35 565.66,-90.81 565.63,-83.81"/>
<text text-anchor="middle" x="577.81" y="-93.2" font-family="Times,serif" font-size="14.00">a</text>
</g>
<!-- q1&#45;&gt;q2 -->
<g id="edge2" class="edge" data-name="q1-&gt;q2">

<path fill="none" stroke="black" d="M145.09,-34C154.96,-34 166.35,-34 176.84,-34"/>
<polygon fill="black" stroke="black" points="176.96,-37.5 186.96,-34 176.96,-30.5 176.96,-37.5"/>
<text text-anchor="middle" x="166.11" y="-38.2" font-family="Times,serif" font-size="14.00">a</text>
</g>
<!-- q3&#45;&gt;q6 -->
<g id="edge5" class="edge" data-name="q3-&gt;q6">

<path fill="none" stroke="black" d="M326.47,-46.09C339.12,-53.86 355.78,-64.11 369.99,-72.85"/>
<polygon fill="black" stroke="black" points="368.56,-76.08 378.92,-78.34 372.23,-70.12 368.56,-76.08"/>
<text text-anchor="middle" x="354.32" y="-69.2" font-family="Times,serif" font-size="14.00">b</text>
</g>
<!-- q4 -->
<g id="node7" class="node" pointer-events="visible" data-name="q4">

<ellipse fill="none" stroke="black" cx="647.76" cy="-18" rx="27" ry="18"/>
<text text-anchor="middle" x="647.76" y="-13.8" font-family="Times,serif" font-size="14.00">q4</text>
</g>
<!-- q3&#45;&gt;q4 -->
<g id="edge4" class="edge" data-name="q3-&gt;q4">

<path fill="none" stroke="black" d="M332.93,-32.77C392.99,-29.94 541.09,-22.97 610.18,-19.72"/>
<polygon fill="black" stroke="black" points="610.74,-23.2 620.56,-19.23 610.41,-16.21 610.74,-23.2"/>
<text text-anchor="middle" x="446.31" y="-32.2" font-family="Times,serif" font-size="14.00">a</text>
</g>
<!-- q5 -->
<g id="node8" class="node" pointer-events="visible" data-name="q5">

<ellipse fill="none" stroke="black" cx="766.21" cy="-58" rx="27" ry="18"/>
<text text-anchor="middle" x="766.21" y="-53.8" font-family="Times,serif" font-size="14.00">q5</text>
</g>
<!-- q4&#45;&gt;q5 -->
<g id="edge6" class="edge" data-name="q4-&gt;q5">

<path fill="none" stroke="black" d="M672.05,-26C689.34,-31.94 713.16,-40.12 732.39,-46.73"/>
<polygon fill="black" stroke="black" points="731.37,-50.08 741.96,-50.02 733.64,-43.46 731.37,-50.08"/>
<text text-anchor="middle" x="717.71" y="-47.2" font-family="Times,serif" font-size="14.00">b</text>
</g>
<!-- q5&#45;&gt;q6 -->
<g id="edge9" class="edge" data-name="q5-&gt;q6">

<path fill="none" stroke="black" d="M759.2,-75.5C749.94,-99.42 729.64,-141.35 696.21,-159 606.66,-206.27 484.8,-143.74 430.12,-110.01"/>
<polygon fill="black" stroke="black" points="431.65,-106.83 421.32,-104.47 427.92,-112.76 431.65,-106.83"/>
<text text-anchor="middle" x="577.81" y="-175.2" font-family="Times,serif" font-size="14.00">b</text>
</g>
<!-- q5&#45;&gt;q4 -->
<g id="edge8" class="edge" data-name="q5-&gt;q4">

<path fill="none" stroke="black" d="M751.74,-42.68C743.75,-34.73 732.91,-25.74 721.21,-21.2 709.86,-16.79 696.75,-15.26 684.83,-15.06"/>
<polygon fill="black" stroke="black" points="684.69,-11.56 674.73,-15.18 684.78,-18.56 684.69,-11.56"/>
<text text-anchor="middle" x="717.71" y="-26.2" font-family="Times,serif" font-size="14.00">a</text>
</g><g id="edge10" class="edge" data-name="{q3, q7}-&gt;q4" data-comment="q5-&gt;q4">

<path fill="none" stroke="black" d="M539.32,-76.58C561.69,-64.38 593.73,-46.91 616.99,-34.23"/>
<polygon fill="black" stroke="black" points="618.96,-37.14 626.06,-29.28 615.61,-31 618.96,-37.14"/>
<text text-anchor="middle" x="577.81" y="-61.2" font-family="Times,serif" font-size="14.00">a</text>
</g>
<!-- {q3,q7}&#45;&gt;{q6,q8} -->

<!-- {q3,q7}&#45;&gt;q4 -->
<g id="edge11" class="edge" data-name="{q3, q7}-&gt;{q6, q8}" data-comment="{q3,q7}-&gt;q4">

<path fill="none" stroke="black" d="M545.97,-102.57C555.04,-105.22 564.96,-107.66 574.31,-109 579.34,-109.72 584.58,-110.04 589.84,-110.07"/>
<polygon fill="black" stroke="black" points="590.02,-113.57 599.92,-109.8 589.83,-106.57 590.02,-113.57"/>
<text text-anchor="middle" x="577.81" y="-113.2" font-family="Times,serif" font-size="14.00">b</text>
</g>
</g>
</svg>