<?xml version="1.0" standalone="no"?>
<svg xmlns="http://www.w3.org/2000/svg" xmlns:xlink="http://www.w3.org/1999/xlink" width="342pt" height="122pt" viewBox="0.00 0.00 342.39 122.49">
<g id="graph0" class="graph" transform="translate(4,118.48999786376953) scale(1)" data-name="">
<polygon fill="white" stroke="transparent" points="-4,4 -4,-118.49 338.39,-118.49 338.39,4 -4,4"/>
<g id="node1" class="node" pointer-events="visible" data-name="">

</g>
<!-- p1 -->
<g id="node2" class="node" pointer-events="visible" data-name="p1">

<ellipse fill="none" stroke="black" cx="115.69" cy="-24.69" rx="20.86" ry="20.86"/>
<ellipse fill="none" stroke="black" cx="115.69" cy="-24.69" rx="24.89" ry="24.89"/>
<text text-anchor="middle" x="115.69" y="-20.49" font-family="Times,serif" font-size="14.00">p1</text>
</g>
<!-- &#45;&gt;p1 -->
<g id="edge1" class="edge" data-name="-&gt;p1">

<path fill="none" stroke="black" d="M54.01,-24.69C62.4,-24.69 71.82,-24.69 80.7,-24.69"/>
<polygon fill="black" stroke="black" points="80.77,-28.19 90.77,-24.69 80.77,-21.19 80.77,-28.19"/>
</g>
<!-- p1&#45;&gt;p1 -->
<g id="edge3" class="edge" data-name="p1-&gt;p1">

<path fill="none" stroke="black" d="M107.91,-48.4C107.28,-58.63 109.87,-67.39 115.69,-67.39 119.42,-67.39 121.83,-63.79 122.91,-58.52"/>
<polygon fill="black" stroke="black" points="126.41,-58.58 123.47,-48.4 119.42,-58.19 126.41,-58.58"/>
<text text-anchor="middle" x="115.69" y="-71.59" font-family="Times,serif" font-size="14.00">a</text>
</g>
<!-- p2 -->
<g id="node3" class="node" pointer-events="visible" data-name="p2">

<ellipse fill="none" stroke="black" cx="210.39" cy="-61.69" rx="27" ry="18"/>
<text text-anchor="middle" x="210.39" y="-57.49" font-family="Times,serif" font-size="14.00">p2</text>
</g>
<!-- p1&#45;&gt;p2 -->
<g id="edge2" class="edge" data-name="p1-&gt;p2">

<path fill="none" stroke="black" d="M139.13,-33.65C150.55,-38.21 164.63,-43.83 177.18,-48.84"/>
<polygon fill="black" stroke="black" points="176.25,-52.23 186.83,-52.69 178.84,-45.73 176.25,-52.23"/>
<text text-anchor="middle" x="161.89" y="-46.89" font-family="Times,serif" font-size="14.00">b</text>
</g>
<!-- p2&#45;&gt;p2 -->
<g id="edge4" class="edge" data-name="p2-&gt;p2">

<path fill="none" stroke="black" d="M201.82,-79.1C200.22,-88.78 203.07,-97.69 210.39,-97.69 214.96,-97.69 217.79,-94.21 218.88,-89.24"/>
<polygon fill="black" stroke="black" points="222.38,-89.13 218.96,-79.1 215.38,-89.08 222.38,-89.13"/>
<text text-anchor="middle" x="210.39" y="-101.89" font-family="Times,serif" font-size="14.00">a</text>
</g>
<!-- p3 -->
<g id="node4" class="node" pointer-events="visible" data-name="p3">

<ellipse fill="none" stroke="black" cx="307.39" cy="-24.69" rx="27" ry="18"/>
<text text-anchor="middle" x="307.39" y="-20.49" font-family="Times,serif" font-size="14.00">p3</text>
</g>
<!-- p2&#45;&gt;p3 -->
<g id="edge5" class="edge" data-name="p2-&gt;p3">

<path fill="none" stroke="black" d="M234.38,-52.74C246.29,-48.1 261.02,-42.36 274.04,-37.29"/>
<polygon fill="black" stroke="black" points="275.55,-40.46 283.6,-33.57 273.01,-33.94 275.55,-40.46"/>
<text text-anchor="middle" x="258.89" y="-47.89" font-family="Times,serif" font-size="14.00">b</text>
</g>
<!-- p3&#45;&gt;p1 -->
<g id="edge7" class="edge" data-name="p3-&gt;p1">

<path fill="none" stroke="black" d="M280.55,-21.54C267.61,-20.12 251.69,-18.6 237.39,-17.89 213.42,-16.72 207.36,-16.67 183.39,-17.89 172.66,-18.44 161.01,-19.47 150.49,-20.58"/>
<polygon fill="black" stroke="black" points="149.97,-17.11 140.42,-21.68 150.74,-24.07 149.97,-17.11"/>
<text text-anchor="middle" x="210.39" y="-22.89" font-family="Times,serif" font-size="14.00">b</text>
</g>
<!-- p3&#45;&gt;p3 -->
<g id="edge6" class="edge" data-name="p3-&gt;p3">

<path fill="none" stroke="black" d="M298.82,-42.1C297.22,-51.78 300.07,-60.69 307.39,-60.69 311.96,-60.69 314.79,-57.21 315.88,-52.24"/>
<polygon fill="black" stroke="black" points="319.38,-52.13 315.96,-42.1 312.38,-52.08 319.38,-52.13"/>
<text text-anchor="middle" x="307.39" y="-64.89" font-family="Times,serif" font-size="14.00">a</text>
</g>
</g>
</svg>