<?xml version="1.0" standalone="no"?>
<svg xmlns="http://www.w3.org/2000/svg" xmlns:xlink="http://www.w3.org/1999/xlink" width="245pt" height="92pt" viewBox="0.00 0.00 244.60 92.19">
<g id="graph0" class="graph" transform="translate(4,88.19000244140625) scale(1)" data-name="">
<polygon fill="white" stroke="transparent" points="-4,4 -4,-88.19 240.6,-88.19 240.6,4 -4,4" style=""/>
<g id="node1" class="node" pointer-events="visible" data-name="">

</g>
<!-- q1 -->
<g id="node2" class="node" pointer-events="visible" data-name="q1">

<ellipse fill="none" stroke="black" cx="115.69" cy="-24.69" rx="20.86" ry="20.86" style=""/>
<ellipse fill="none" stroke="black" cx="115.69" cy="-24.69" rx="24.89" ry="24.89" style=""/>
<text text-anchor="middle" x="115.69" y="-20.49" font-family="Times,serif" font-size="14.00" style="">q1</text>
</g>
<!-- &#45;&gt;q1 -->
<g id="edge1" class="edge" data-name="-&gt;q1">

<path fill="none" stroke="black" d="M54.01,-24.69C62.4,-24.69 71.82,-24.69 80.7,-24.69" style=""/>
<polygon fill="black" stroke="black" points="80.77,-28.19 90.77,-24.69 80.77,-21.19 80.77,-28.19" style=""/>
</g>
<!-- q1&#45;&gt;q1 -->
<g id="edge2" class="edge" data-name="q1-&gt;q1">

<path fill="none" stroke="black" d="M107.91,-48.4C107.28,-58.63 109.87,-67.39 115.69,-67.39 119.42,-67.39 121.83,-63.79 122.91,-58.52" style=""/>
<polygon fill="black" stroke="black" points="126.41,-58.58 123.47,-48.4 119.42,-58.19 126.41,-58.58" style=""/>
<text text-anchor="middle" x="115.69" y="-71.59" font-family="Times,serif" font-size="14.00" style="">b</text>
</g>
<!-- q2 -->
<g id="node3" class="node" pointer-events="visible" data-name="q2">

<ellipse fill="none" stroke="black" cx="209.6" cy="-24.69" rx="27" ry="18" style=""/>
<text text-anchor="middle" x="209.6" y="-20.49" font-family="Times,serif" font-size="14.00" style="">q2</text>
</g>
<!-- q1&#45;&gt;q2 -->
<g id="edge3" class="edge" data-name="q1-&gt;q2">

<path fill="none" stroke="black" d="M140.84,-24.69C150.41,-24.69 161.63,-24.69 172.15,-24.69" style=""/>
<polygon fill="black" stroke="black" points="172.36,-28.19 182.36,-24.69 172.36,-21.19 172.36,-28.19" style=""/>
<text text-anchor="middle" x="161.49" y="-28.89" font-family="Times,serif" font-size="14.00" style="">a</text>
</g>
<!-- q2&#45;&gt;q1 -->
<g id="edge4" class="edge" data-name="q2-&gt;q1">

<path fill="none" stroke="black" d="M190.94,-11.39C181.52,-5.85 169.59,-1.25 158.39,-3.89 154.43,-4.83 150.41,-6.2 146.52,-7.8" style=""/>
<polygon fill="black" stroke="black" points="144.78,-4.74 137.18,-12.12 147.73,-11.09 144.78,-4.74" style=""/>
<text text-anchor="middle" x="161.49" y="-7.89" font-family="Times,serif" font-size="14.00" style="">a</text>
</g>
<!-- q2&#45;&gt;q2 -->
<g id="edge5" class="edge" data-name="q2-&gt;q2">

<path fill="none" stroke="black" d="M201.03,-42.1C199.43,-51.78 202.29,-60.69 209.6,-60.69 214.17,-60.69 217,-57.21 218.09,-52.24" style=""/>
<polygon fill="black" stroke="black" points="221.59,-52.13 218.17,-42.1 214.59,-52.08 221.59,-52.13" style=""/>
<text text-anchor="middle" x="209.6" y="-64.89" font-family="Times,serif" font-size="14.00" style="">b</text>
</g>
</g>
</svg>