<?xml version="1.0" standalone="no"?>
<svg xmlns="http://www.w3.org/2000/svg" xmlns:xlink="http://www.w3.org/1999/xlink" width="799pt" height="164pt" viewBox="0.00 0.00 799.45 164.00">
<g id="graph0" class="graph" transform="translate(-12.41880074235695,154.6982185960809) scale(1.0000000000000002)" data-name="">
<polygon fill="white" stroke="transparent" points="-4,4 -4,-160 795.45,-160 795.45,4 -4,4" style=""/>
<g id="node1" class="node" pointer-events="visible" data-name="">

</g>
<!-- q1 -->
<g id="node3" class="node" pointer-events="visible" data-name="q1">

<ellipse fill="none" stroke="black" cx="118" cy="-76" rx="27" ry="18" style=""/>
<text text-anchor="middle" x="118" y="-71.8" font-family="Times,serif" font-size="14.00" style="">q1</text>
</g>
<!-- &#45;&gt;q1 -->
<g id="edge1" class="edge" data-name="-&gt;q1">

<path fill="none" stroke="black" d="M54.22,-76C62.55,-76 71.91,-76 80.82,-76" style=""/>
<polygon fill="black" stroke="black" points="80.97,-79.5 90.97,-76 80.97,-72.5 80.97,-79.5" style=""/>
</g>
<!-- q10 -->
<g id="node2" class="node" pointer-events="visible" data-name="q10">

<ellipse fill="none" stroke="black" cx="761.93" cy="-69" rx="25.54" ry="25.54" style=""/>
<ellipse fill="none" stroke="black" cx="761.93" cy="-69" rx="29.54" ry="29.54" style=""/>
<text text-anchor="middle" x="761.93" y="-64.8" font-family="Times,serif" font-size="14.00" style="">q10</text>
</g>
<!-- q2 -->
<g id="node4" class="node" pointer-events="visible" data-name="q2">

<ellipse fill="none" stroke="black" cx="219.66" cy="-138" rx="27" ry="18" style=""/>
<text text-anchor="middle" x="219.66" y="-133.8" font-family="Times,serif" font-size="14.00" style="">q2</text>
</g>
<!-- q1&#45;&gt;q2 -->
<g id="edge2" class="edge" data-name="q1-&gt;q2">

<path fill="none" stroke="black" d="M137.2,-88.87C145.05,-94.3 154.38,-100.6 163,-106 171.46,-111.31 180.82,-116.82 189.41,-121.74" style=""/>
<polygon fill="black" stroke="black" points="187.92,-124.92 198.34,-126.81 191.38,-118.83 187.92,-124.92" style=""/>
<text text-anchor="middle" x="168.83" y="-116.2" font-family="Times,serif" font-size="14.00" style="">λ</text>
</g>
<!-- q9 -->
<g id="node8" class="node" pointer-events="visible" data-name="q9">

<ellipse fill="none" stroke="black" cx="663.2" cy="-69" rx="27" ry="18" style=""/>
<text text-anchor="middle" x="663.2" y="-64.8" font-family="Times,serif" font-size="14.00" style="">q9</text>
</g>
<!-- q1&#45;&gt;q9 -->
<g id="edge12" class="edge" data-name="q1-&gt;q9">

<path fill="none" stroke="black" d="M143.4,-82.14C163.47,-86.65 192.73,-92 218.66,-92 218.66,-92 218.66,-92 562.54,-92 585.26,-92 610.18,-86.25 629.41,-80.5" style=""/>
<polygon fill="black" stroke="black" points="630.69,-83.77 639.18,-77.43 628.6,-77.09 630.69,-83.77" style=""/>
<text text-anchor="middle" x="366.71" y="-96.2" font-family="Times,serif" font-size="14.00" style="">λ</text>
</g>
<!-- q6 -->
<g id="node9" class="node" pointer-events="visible" data-name="q6">

<ellipse fill="none" stroke="black" cx="219.66" cy="-46" rx="27" ry="18" style=""/>
<text text-anchor="middle" x="219.66" y="-41.8" font-family="Times,serif" font-size="14.00" style="">q6</text>
</g>
<!-- q1&#45;&gt;q6 -->
<g id="edge7" class="edge" data-name="q1-&gt;q6">

<path fill="none" stroke="black" d="M142.21,-67.91C148.9,-65.66 156.22,-63.27 163,-61.2 169.82,-59.12 177.16,-57.02 184.19,-55.08" style=""/>
<polygon fill="black" stroke="black" points="185.46,-58.36 194.19,-52.35 183.62,-51.61 185.46,-58.36" style=""/>
<text text-anchor="middle" x="168.83" y="-65.2" font-family="Times,serif" font-size="14.00" style="">λ</text>
</g>
<!-- q3 -->
<g id="node5" class="node" pointer-events="visible" data-name="q3">

<ellipse fill="none" stroke="black" cx="315.88" cy="-138" rx="27" ry="18" style=""/>
<text text-anchor="middle" x="315.88" y="-133.8" font-family="Times,serif" font-size="14.00" style="">q3</text>
</g>
<!-- q2&#45;&gt;q3 -->
<g id="edge3" class="edge" data-name="q2-&gt;q3">

<path fill="none" stroke="black" d="M246.9,-138C256.71,-138 268.02,-138 278.56,-138" style=""/>
<polygon fill="black" stroke="black" points="278.77,-141.5 288.77,-138 278.77,-134.5 278.77,-141.5" style=""/>
<text text-anchor="middle" x="267.77" y="-142.2" font-family="Times,serif" font-size="14.00" style="">a</text>
</g>
<!-- q4 -->
<g id="node6" class="node" pointer-events="visible" data-name="q4">

<ellipse fill="none" stroke="black" cx="417.54" cy="-138" rx="27" ry="18" style=""/>
<text text-anchor="middle" x="417.54" y="-133.8" font-family="Times,serif" font-size="14.00" style="">q4</text>
</g>
<!-- q3&#45;&gt;q4 -->
<g id="edge4" class="edge" data-name="q3-&gt;q4">

<path fill="none" stroke="black" d="M343.06,-138C354.5,-138 368.11,-138 380.49,-138" style=""/>
<polygon fill="black" stroke="black" points="380.53,-141.5 390.53,-138 380.53,-134.5 380.53,-141.5" style=""/>
<text text-anchor="middle" x="366.71" y="-142.2" font-family="Times,serif" font-size="14.00" style="">b</text>
</g>
<!-- q5 -->
<g id="node7" class="node" pointer-events="visible" data-name="q5">

<ellipse fill="none" stroke="black" cx="561.54" cy="-138" rx="27" ry="18" style=""/>
<text text-anchor="middle" x="561.54" y="-133.8" font-family="Times,serif" font-size="14.00" style="">q5</text>
</g>
<!-- q4&#45;&gt;q5 -->
<g id="edge5" class="edge" data-name="q4-&gt;q5">

<path fill="none" stroke="black" d="M444.58,-138C466.86,-138 499.17,-138 524.03,-138" style=""/>
<polygon fill="black" stroke="black" points="524.18,-141.5 534.18,-138 524.18,-134.5 524.18,-141.5" style=""/>
<text text-anchor="middle" x="489.54" y="-142.2" font-family="Times,serif" font-size="14.00" style="">a</text>
</g>
<!-- q5&#45;&gt;q9 -->
<g id="edge6" class="edge" data-name="q5-&gt;q9">

<path fill="none" stroke="black" d="M583.43,-127.14C594.11,-121.3 607.15,-113.73 618.2,-106 625.1,-101.17 632.23,-95.51 638.69,-90.08" style=""/>
<polygon fill="black" stroke="black" points="641.14,-92.59 646.45,-83.42 636.58,-87.28 641.14,-92.59" style=""/>
<text text-anchor="middle" x="612.37" y="-116.2" font-family="Times,serif" font-size="14.00" style="">λ</text>
</g>
<!-- q9&#45;&gt;q10 -->
<g id="edge11" class="edge" data-name="q9-&gt;q10">

<path fill="none" stroke="black" d="M690.37,-69C700.21,-69 711.61,-69 722.34,-69" style=""/>
<polygon fill="black" stroke="black" points="722.35,-72.5 732.35,-69 722.35,-65.5 722.35,-72.5" style=""/>
<text text-anchor="middle" x="711.3" y="-73.2" font-family="Times,serif" font-size="14.00" style="">a</text>
</g>
<!-- q9&#45;&gt;q1 -->
<g id="edge13" class="edge" data-name="q9-&gt;q1">

<path fill="none" stroke="black" d="M649.93,-53C632.79,-32.61 599.57,0 562.54,0 218.66,0 218.66,0 218.66,0 184.12,0 154.1,-29.22 136.27,-51.42" style=""/>
<polygon fill="black" stroke="black" points="133.37,-49.45 130.05,-59.51 138.92,-53.71 133.37,-49.45" style=""/>
<text text-anchor="middle" x="366.71" y="-4.2" font-family="Times,serif" font-size="14.00" style="">λ</text>
</g>
<!-- q7 -->
<g id="node10" class="node" pointer-events="visible" data-name="q7">

<ellipse fill="none" stroke="black" cx="315.88" cy="-46" rx="27" ry="18" style=""/>
<text text-anchor="middle" x="315.88" y="-41.8" font-family="Times,serif" font-size="14.00" style="">q7</text>
</g>
<!-- q6&#45;&gt;q7 -->
<g id="edge8" class="edge" data-name="q6-&gt;q7">

<path fill="none" stroke="black" d="M246.9,-46C256.71,-46 268.02,-46 278.56,-46" style=""/>
<polygon fill="black" stroke="black" points="278.77,-49.5 288.77,-46 278.77,-42.5 278.77,-49.5" style=""/>
<text text-anchor="middle" x="267.77" y="-50.2" font-family="Times,serif" font-size="14.00" style="">a</text>
</g>
<!-- q8 -->
<g id="node11" class="node" pointer-events="visible" data-name="q8">

<ellipse fill="none" stroke="black" cx="489.54" cy="-46" rx="27" ry="18" style=""/>
<text text-anchor="middle" x="489.54" y="-41.8" font-family="Times,serif" font-size="14.00" style="">q8</text>
</g>
<!-- q7&#45;&gt;q8 -->
<g id="edge9" class="edge" data-name="q7-&gt;q8">

<path fill="none" stroke="black" d="M342.95,-46C372.15,-46 419.66,-46 452.42,-46" style=""/>
<polygon fill="black" stroke="black" points="452.5,-49.5 462.5,-46 452.5,-42.5 452.5,-49.5" style=""/>
<text text-anchor="middle" x="366.71" y="-50.2" font-family="Times,serif" font-size="14.00" style="">b</text>
</g>
<!-- q8&#45;&gt;q9 -->
<g id="edge10" class="edge" data-name="q8-&gt;q9">

<path fill="none" stroke="black" d="M516.24,-49.44C545.52,-53.37 593.58,-59.81 626.49,-64.22" style=""/>
<polygon fill="black" stroke="black" points="626.23,-67.71 636.6,-65.57 627.16,-60.77 626.23,-67.71" style=""/>
<text text-anchor="middle" x="561.54" y="-62.2" font-family="Times,serif" font-size="14.00" style="">λ</text>
</g>
</g>
</svg>