<?xml version="1.0" standalone="no"?>
<svg xmlns="http://www.w3.org/2000/svg" xmlns:xlink="http://www.w3.org/1999/xlink" width="341pt" height="92pt" viewBox="0.00 0.00 340.82 92.19">
<g id="graph0" class="graph" transform="translate(4,88.19000244140625) scale(1)" data-name="">
<polygon fill="white" stroke="transparent" points="-4,4 -4,-88.19 336.82,-88.19 336.82,4 -4,4" style=""/>
<g id="node1" class="node" pointer-events="visible" data-name="">

</g>
<!-- q1 -->
<g id="node3" class="node" pointer-events="visible" data-name="q1">

<ellipse fill="none" stroke="black" cx="118" cy="-24.69" rx="27" ry="18" style=""/>
<text text-anchor="middle" x="118" y="-20.49" font-family="Times,serif" font-size="14.00" style="">q1</text>
</g>
<!-- &#45;&gt;q1 -->
<g id="edge1" class="edge" data-name="-&gt;q1">

<path fill="none" stroke="black" d="M54.22,-24.69C62.55,-24.69 71.91,-24.69 80.82,-24.69" style=""/>
<polygon fill="black" stroke="black" points="80.97,-28.19 90.97,-24.69 80.97,-21.19 80.97,-28.19" style=""/>
</g>
<!-- q3 -->
<g id="node2" class="node" pointer-events="visible" data-name="q3">

<ellipse fill="none" stroke="black" cx="308.12" cy="-24.69" rx="20.86" ry="20.86" style=""/>
<ellipse fill="none" stroke="black" cx="308.12" cy="-24.69" rx="24.89" ry="24.89" style=""/>
<text text-anchor="middle" x="308.12" y="-20.49" font-family="Times,serif" font-size="14.00" style="">q3</text>
</g>
<!-- q3&#45;&gt;q3 -->
<g id="edge6" class="edge" data-name="q3-&gt;q3">

<path fill="none" stroke="black" d="M299.97,-48.4C299.3,-58.63 302.02,-67.39 308.12,-67.39 312.03,-67.39 314.55,-63.79 315.68,-58.52" style=""/>
<polygon fill="black" stroke="black" points="319.18,-58.59 316.27,-48.4 312.2,-58.18 319.18,-58.59" style=""/>
<text text-anchor="middle" x="308.12" y="-71.59" font-family="Times,serif" font-size="14.00" style="">a,b</text>
</g>
<!-- q1&#45;&gt;q1 -->
<g id="edge2" class="edge" data-name="q1-&gt;q1">

<path fill="none" stroke="black" d="M110.14,-42.1C108.68,-51.78 111.3,-60.69 118,-60.69 122.19,-60.69 124.78,-57.21 125.78,-52.24" style=""/>
<polygon fill="black" stroke="black" points="129.28,-52.13 125.86,-42.1 122.28,-52.08 129.28,-52.13" style=""/>
<text text-anchor="middle" x="118" y="-64.89" font-family="Times,serif" font-size="14.00" style="">b</text>
</g>
<!-- q2 -->
<g id="node4" class="node" pointer-events="visible" data-name="q2">

<ellipse fill="none" stroke="black" cx="214.21" cy="-24.69" rx="27" ry="18" style=""/>
<text text-anchor="middle" x="214.21" y="-20.49" font-family="Times,serif" font-size="14.00" style="">q2</text>
</g>
<!-- q1&#45;&gt;q2 -->
<g id="edge3" class="edge" data-name="q1-&gt;q2">

<path fill="none" stroke="black" d="M145.24,-24.69C155.04,-24.69 166.36,-24.69 176.9,-24.69" style=""/>
<polygon fill="black" stroke="black" points="177.11,-28.19 187.11,-24.69 177.11,-21.19 177.11,-28.19" style=""/>
<text text-anchor="middle" x="166.11" y="-28.89" font-family="Times,serif" font-size="14.00" style="">a</text>
</g>
<!-- q2&#45;&gt;q3 -->
<g id="edge5" class="edge" data-name="q2-&gt;q3">

<path fill="none" stroke="black" d="M241.31,-24.69C251.18,-24.69 262.56,-24.69 273.06,-24.69" style=""/>
<polygon fill="black" stroke="black" points="273.17,-28.19 283.17,-24.69 273.17,-21.19 273.17,-28.19" style=""/>
<text text-anchor="middle" x="262.32" y="-28.89" font-family="Times,serif" font-size="14.00" style="">a</text>
</g>
<!-- q2&#45;&gt;q2 -->
<g id="edge4" class="edge" data-name="q2-&gt;q2">

<path fill="none" stroke="black" d="M205.65,-42.1C204.05,-51.78 206.9,-60.69 214.21,-60.69 218.78,-60.69 221.61,-57.21 222.7,-52.24" style=""/>
<polygon fill="black" stroke="black" points="226.2,-52.13 222.78,-42.1 219.2,-52.08 226.2,-52.13" style=""/>
<text text-anchor="middle" x="214.21" y="-64.89" font-family="Times,serif" font-size="14.00" style="">b</text>
</g>
</g>
</svg>