<?xml version="1.0" standalone="no"?>
<svg xmlns="http://www.w3.org/2000/svg" xmlns:xlink="http://www.w3.org/1999/xlink" width="342pt" height="92pt" viewBox="0.00 0.00 342.39 92.19">
<g id="graph0" class="graph" transform="translate(4,88.19000244140625) scale(1)" data-name="">
<polygon fill="white" stroke="transparent" points="-4,4 -4,-88.19 338.39,-88.19 338.39,4 -4,4"/>
<g id="node1" class="node" pointer-events="visible" data-name="">

</g>
<!-- p1 -->
<g id="node3" class="node" pointer-events="visible" data-name="p1">

<ellipse fill="none" stroke="black" cx="118" cy="-24.69" rx="27" ry="18"/>
<text text-anchor="middle" x="118" y="-20.49" font-family="Times,serif" font-size="14.00">p1</text>
</g>
<!-- &#45;&gt;p1 -->
<g id="edge1" class="edge" data-name="-&gt;p1">

<path fill="none" stroke="black" d="M54.22,-24.69C62.55,-24.69 71.91,-24.69 80.82,-24.69"/>
<polygon fill="black" stroke="black" points="80.97,-28.19 90.97,-24.69 80.97,-21.19 80.97,-28.19"/>
</g>
<!-- p3 -->
<g id="node2" class="node" pointer-events="visible" data-name="p3">

<ellipse fill="none" stroke="black" cx="309.69" cy="-24.69" rx="20.86" ry="20.86"/>
<ellipse fill="none" stroke="black" cx="309.69" cy="-24.69" rx="24.89" ry="24.89"/>
<text text-anchor="middle" x="309.69" y="-20.49" font-family="Times,serif" font-size="14.00">p3</text>
</g>
<!-- p3&#45;&gt;p3 -->
<g id="edge6" class="edge" data-name="p3-&gt;p3">

<path fill="none" stroke="black" d="M301.2,-47.97C300.39,-58.38 303.22,-67.39 309.69,-67.39 313.84,-67.39 316.49,-63.69 317.65,-58.3"/>
<polygon fill="black" stroke="black" points="321.16,-58.14 318.18,-47.97 314.17,-57.77 321.16,-58.14"/>
<text text-anchor="middle" x="309.69" y="-71.59" font-family="Times,serif" font-size="14.00">a,b</text>
</g>
<!-- p1&#45;&gt;p1 -->
<g id="edge2" class="edge" data-name="p1-&gt;p1">

<path fill="none" stroke="black" d="M110.14,-42.1C108.68,-51.78 111.3,-60.69 118,-60.69 122.19,-60.69 124.78,-57.21 125.78,-52.24"/>
<polygon fill="black" stroke="black" points="129.28,-52.13 125.86,-42.1 122.28,-52.08 129.28,-52.13"/>
<text text-anchor="middle" x="118" y="-64.89" font-family="Times,serif" font-size="14.00">a</text>
</g>
<!-- p2 -->
<g id="node4" class="node" pointer-events="visible" data-name="p2">

<ellipse fill="none" stroke="black" cx="215" cy="-24.69" rx="27" ry="18"/>
<text text-anchor="middle" x="215" y="-20.49" font-family="Times,serif" font-size="14.00">p2</text>
</g>
<!-- p1&#45;&gt;p2 -->
<g id="edge3" class="edge" data-name="p1-&gt;p2">

<path fill="none" stroke="black" d="M145.21,-24.69C155.28,-24.69 166.96,-24.69 177.81,-24.69"/>
<polygon fill="black" stroke="black" points="177.87,-28.19 187.87,-24.69 177.87,-21.19 177.87,-28.19"/>
<text text-anchor="middle" x="166.5" y="-28.89" font-family="Times,serif" font-size="14.00">b</text>
</g>
<!-- p2&#45;&gt;p3 -->
<g id="edge5" class="edge" data-name="p2-&gt;p3">

<path fill="none" stroke="black" d="M242.31,-24.69C252.35,-24.69 263.94,-24.69 274.59,-24.69"/>
<polygon fill="black" stroke="black" points="274.85,-28.19 284.85,-24.69 274.85,-21.19 274.85,-28.19"/>
<text text-anchor="middle" x="263.5" y="-28.89" font-family="Times,serif" font-size="14.00">b</text>
</g>
<!-- p2&#45;&gt;p2 -->
<g id="edge4" class="edge" data-name="p2-&gt;p2">

<path fill="none" stroke="black" d="M206.43,-42.1C204.83,-51.78 207.69,-60.69 215,-60.69 219.57,-60.69 222.4,-57.21 223.49,-52.24"/>
<polygon fill="black" stroke="black" points="226.99,-52.13 223.57,-42.1 219.99,-52.08 226.99,-52.13"/>
<text text-anchor="middle" x="215" y="-64.89" font-family="Times,serif" font-size="14.00">a</text>
</g>
</g>
</svg>